<mxfile host="app.diagrams.net" agent="Mozilla/5.0 (Windows NT 10.0; Win64; x64) AppleWebKit/537.36 (KHTML, like Gecko) Chrome/130.0.0.0 Safari/537.36 Edg/130.0.0.0" version="24.8.4" pages="5">
  <diagram name="GameFlow" id="RmUFuGKlFf_-1oZYGDVu">
    <mxGraphModel dx="1354" dy="738" grid="1" gridSize="10" guides="1" tooltips="1" connect="1" arrows="1" fold="1" page="1" pageScale="1" pageWidth="850" pageHeight="1100" math="0" shadow="0">
      <root>
        <mxCell id="0" />
        <mxCell id="1" parent="0" />
        <mxCell id="WXssAixfPL5VUBBnaXDJ-1" value="" style="edgeStyle=orthogonalEdgeStyle;rounded=0;orthogonalLoop=1;jettySize=auto;html=1;" edge="1" parent="1" source="WXssAixfPL5VUBBnaXDJ-2" target="WXssAixfPL5VUBBnaXDJ-4">
          <mxGeometry relative="1" as="geometry" />
        </mxCell>
        <mxCell id="WXssAixfPL5VUBBnaXDJ-2" value="Start" style="ellipse;whiteSpace=wrap;html=1;fillColor=none;" vertex="1" parent="1">
          <mxGeometry x="52" y="55" width="120" height="80" as="geometry" />
        </mxCell>
        <mxCell id="WXssAixfPL5VUBBnaXDJ-3" value="" style="edgeStyle=orthogonalEdgeStyle;rounded=0;orthogonalLoop=1;jettySize=auto;html=1;" edge="1" parent="1" source="WXssAixfPL5VUBBnaXDJ-4" target="WXssAixfPL5VUBBnaXDJ-6">
          <mxGeometry relative="1" as="geometry" />
        </mxCell>
        <mxCell id="WXssAixfPL5VUBBnaXDJ-4" value="Play State" style="whiteSpace=wrap;html=1;fillColor=none;" vertex="1" parent="1">
          <mxGeometry x="52" y="179" width="120" height="60" as="geometry" />
        </mxCell>
        <mxCell id="WXssAixfPL5VUBBnaXDJ-5" value="" style="edgeStyle=orthogonalEdgeStyle;rounded=0;orthogonalLoop=1;jettySize=auto;html=1;" edge="1" parent="1" source="WXssAixfPL5VUBBnaXDJ-6" target="WXssAixfPL5VUBBnaXDJ-8">
          <mxGeometry relative="1" as="geometry" />
        </mxCell>
        <mxCell id="WXssAixfPL5VUBBnaXDJ-6" value="Main Menu" style="whiteSpace=wrap;html=1;fillColor=none;" vertex="1" parent="1">
          <mxGeometry x="252" y="179" width="120" height="60" as="geometry" />
        </mxCell>
        <mxCell id="WXssAixfPL5VUBBnaXDJ-7" value="" style="edgeStyle=orthogonalEdgeStyle;rounded=0;orthogonalLoop=1;jettySize=auto;html=1;" edge="1" parent="1" source="WXssAixfPL5VUBBnaXDJ-8" target="WXssAixfPL5VUBBnaXDJ-10">
          <mxGeometry relative="1" as="geometry" />
        </mxCell>
        <mxCell id="WXssAixfPL5VUBBnaXDJ-8" value="Start Game Level" style="whiteSpace=wrap;html=1;fillColor=none;" vertex="1" parent="1">
          <mxGeometry x="252" y="280" width="120" height="60" as="geometry" />
        </mxCell>
        <mxCell id="WXssAixfPL5VUBBnaXDJ-9" value="" style="edgeStyle=orthogonalEdgeStyle;rounded=0;orthogonalLoop=1;jettySize=auto;html=1;" edge="1" parent="1" source="WXssAixfPL5VUBBnaXDJ-10" target="WXssAixfPL5VUBBnaXDJ-12">
          <mxGeometry relative="1" as="geometry" />
        </mxCell>
        <mxCell id="WXssAixfPL5VUBBnaXDJ-10" value="Game play screen" style="whiteSpace=wrap;html=1;fillColor=none;" vertex="1" parent="1">
          <mxGeometry x="252" y="429" width="120" height="60" as="geometry" />
        </mxCell>
        <mxCell id="WXssAixfPL5VUBBnaXDJ-11" value="" style="edgeStyle=orthogonalEdgeStyle;rounded=0;orthogonalLoop=1;jettySize=auto;html=1;" edge="1" parent="1" source="WXssAixfPL5VUBBnaXDJ-12" target="WXssAixfPL5VUBBnaXDJ-13">
          <mxGeometry relative="1" as="geometry" />
        </mxCell>
        <mxCell id="WXssAixfPL5VUBBnaXDJ-12" value="Move character" style="whiteSpace=wrap;html=1;fillColor=none;" vertex="1" parent="1">
          <mxGeometry x="416" y="429" width="120" height="60" as="geometry" />
        </mxCell>
        <mxCell id="WXssAixfPL5VUBBnaXDJ-13" value="Hp = 0" style="rhombus;whiteSpace=wrap;html=1;fillColor=none;" vertex="1" parent="1">
          <mxGeometry x="580" y="419" width="100" height="80" as="geometry" />
        </mxCell>
        <mxCell id="WXssAixfPL5VUBBnaXDJ-14" style="edgeStyle=orthogonalEdgeStyle;rounded=0;orthogonalLoop=1;jettySize=auto;html=1;entryX=1;entryY=0;entryDx=0;entryDy=0;exitX=0;exitY=0.5;exitDx=0;exitDy=0;" edge="1" parent="1" source="WXssAixfPL5VUBBnaXDJ-18" target="WXssAixfPL5VUBBnaXDJ-10">
          <mxGeometry relative="1" as="geometry">
            <Array as="points">
              <mxPoint x="575" y="350" />
              <mxPoint x="372" y="350" />
            </Array>
          </mxGeometry>
        </mxCell>
        <mxCell id="WXssAixfPL5VUBBnaXDJ-15" value="Yes" style="edgeLabel;html=1;align=center;verticalAlign=middle;resizable=0;points=[];" connectable="0" vertex="1" parent="WXssAixfPL5VUBBnaXDJ-14">
          <mxGeometry x="-0.2146" y="5" relative="1" as="geometry">
            <mxPoint x="-4" y="-7" as="offset" />
          </mxGeometry>
        </mxCell>
        <mxCell id="WXssAixfPL5VUBBnaXDJ-16" style="edgeStyle=orthogonalEdgeStyle;rounded=0;orthogonalLoop=1;jettySize=auto;html=1;" edge="1" parent="1" source="WXssAixfPL5VUBBnaXDJ-18" target="WXssAixfPL5VUBBnaXDJ-34">
          <mxGeometry relative="1" as="geometry" />
        </mxCell>
        <mxCell id="WXssAixfPL5VUBBnaXDJ-17" value="No" style="edgeLabel;html=1;align=center;verticalAlign=middle;resizable=0;points=[];" connectable="0" vertex="1" parent="WXssAixfPL5VUBBnaXDJ-16">
          <mxGeometry x="-0.7013" relative="1" as="geometry">
            <mxPoint x="1" as="offset" />
          </mxGeometry>
        </mxCell>
        <mxCell id="WXssAixfPL5VUBBnaXDJ-18" value="Replay" style="rhombus;whiteSpace=wrap;html=1;fillColor=none;" vertex="1" parent="1">
          <mxGeometry x="575" y="270" width="101" height="80" as="geometry" />
        </mxCell>
        <mxCell id="WXssAixfPL5VUBBnaXDJ-19" value="" style="endArrow=classic;html=1;rounded=0;exitX=0.5;exitY=0;exitDx=0;exitDy=0;entryX=0.5;entryY=1;entryDx=0;entryDy=0;" edge="1" parent="1" source="WXssAixfPL5VUBBnaXDJ-13" target="WXssAixfPL5VUBBnaXDJ-18">
          <mxGeometry relative="1" as="geometry">
            <mxPoint x="611" y="476" as="sourcePoint" />
            <mxPoint x="711" y="476" as="targetPoint" />
          </mxGeometry>
        </mxCell>
        <mxCell id="WXssAixfPL5VUBBnaXDJ-20" value="Yes" style="edgeLabel;resizable=0;html=1;;align=center;verticalAlign=middle;" connectable="0" vertex="1" parent="WXssAixfPL5VUBBnaXDJ-19">
          <mxGeometry relative="1" as="geometry" />
        </mxCell>
        <mxCell id="WXssAixfPL5VUBBnaXDJ-21" value="" style="edgeStyle=orthogonalEdgeStyle;rounded=0;orthogonalLoop=1;jettySize=auto;html=1;entryX=0.5;entryY=0;entryDx=0;entryDy=0;" edge="1" parent="1" source="WXssAixfPL5VUBBnaXDJ-25" target="WXssAixfPL5VUBBnaXDJ-29">
          <mxGeometry relative="1" as="geometry">
            <mxPoint x="790.5" y="531" as="targetPoint" />
          </mxGeometry>
        </mxCell>
        <mxCell id="WXssAixfPL5VUBBnaXDJ-22" value="Yes" style="edgeLabel;html=1;align=center;verticalAlign=middle;resizable=0;points=[];" connectable="0" vertex="1" parent="WXssAixfPL5VUBBnaXDJ-21">
          <mxGeometry x="-0.2353" y="4" relative="1" as="geometry">
            <mxPoint x="-7" y="2" as="offset" />
          </mxGeometry>
        </mxCell>
        <mxCell id="WXssAixfPL5VUBBnaXDJ-23" style="edgeStyle=orthogonalEdgeStyle;rounded=0;orthogonalLoop=1;jettySize=auto;html=1;entryX=0.5;entryY=0;entryDx=0;entryDy=0;" edge="1" parent="1" source="WXssAixfPL5VUBBnaXDJ-25" target="WXssAixfPL5VUBBnaXDJ-12">
          <mxGeometry relative="1" as="geometry">
            <Array as="points">
              <mxPoint x="944" y="459" />
              <mxPoint x="944" y="409" />
              <mxPoint x="476" y="409" />
            </Array>
          </mxGeometry>
        </mxCell>
        <mxCell id="WXssAixfPL5VUBBnaXDJ-24" value="No" style="edgeLabel;html=1;align=center;verticalAlign=middle;resizable=0;points=[];" connectable="0" vertex="1" parent="WXssAixfPL5VUBBnaXDJ-23">
          <mxGeometry x="-0.8855" y="-3" relative="1" as="geometry">
            <mxPoint x="-1" y="-3" as="offset" />
          </mxGeometry>
        </mxCell>
        <mxCell id="WXssAixfPL5VUBBnaXDJ-25" value="Take the door" style="rhombus;whiteSpace=wrap;html=1;fillColor=none;" vertex="1" parent="1">
          <mxGeometry x="740" y="419" width="101" height="80" as="geometry" />
        </mxCell>
        <mxCell id="WXssAixfPL5VUBBnaXDJ-26" value="" style="endArrow=classic;html=1;rounded=0;" edge="1" parent="1" source="WXssAixfPL5VUBBnaXDJ-13" target="WXssAixfPL5VUBBnaXDJ-25">
          <mxGeometry relative="1" as="geometry">
            <mxPoint x="680" y="459" as="sourcePoint" />
            <mxPoint x="739" y="459" as="targetPoint" />
          </mxGeometry>
        </mxCell>
        <mxCell id="WXssAixfPL5VUBBnaXDJ-27" value="No" style="edgeLabel;resizable=0;html=1;;align=center;verticalAlign=middle;" connectable="0" vertex="1" parent="WXssAixfPL5VUBBnaXDJ-26">
          <mxGeometry relative="1" as="geometry" />
        </mxCell>
        <mxCell id="WXssAixfPL5VUBBnaXDJ-28" value="" style="edgeStyle=orthogonalEdgeStyle;rounded=0;orthogonalLoop=1;jettySize=auto;html=1;" edge="1" parent="1" source="WXssAixfPL5VUBBnaXDJ-29" target="WXssAixfPL5VUBBnaXDJ-33">
          <mxGeometry relative="1" as="geometry" />
        </mxCell>
        <mxCell id="WXssAixfPL5VUBBnaXDJ-29" value="Next Level" style="rounded=0;whiteSpace=wrap;html=1;fillColor=none;" vertex="1" parent="1">
          <mxGeometry x="733" y="546" width="120" height="60" as="geometry" />
        </mxCell>
        <mxCell id="WXssAixfPL5VUBBnaXDJ-30" style="edgeStyle=orthogonalEdgeStyle;rounded=0;orthogonalLoop=1;jettySize=auto;html=1;entryX=0;entryY=0.5;entryDx=0;entryDy=0;exitX=0;exitY=0.5;exitDx=0;exitDy=0;" edge="1" parent="1" source="WXssAixfPL5VUBBnaXDJ-33" target="WXssAixfPL5VUBBnaXDJ-8">
          <mxGeometry relative="1" as="geometry">
            <Array as="points">
              <mxPoint x="151" y="677" />
              <mxPoint x="151" y="310" />
            </Array>
          </mxGeometry>
        </mxCell>
        <mxCell id="WXssAixfPL5VUBBnaXDJ-31" value="No" style="edgeLabel;html=1;align=center;verticalAlign=middle;resizable=0;points=[];" connectable="0" vertex="1" parent="WXssAixfPL5VUBBnaXDJ-30">
          <mxGeometry x="-0.5548" y="1" relative="1" as="geometry">
            <mxPoint as="offset" />
          </mxGeometry>
        </mxCell>
        <mxCell id="WXssAixfPL5VUBBnaXDJ-32" value="" style="edgeStyle=orthogonalEdgeStyle;rounded=0;orthogonalLoop=1;jettySize=auto;html=1;entryX=0;entryY=0.5;entryDx=0;entryDy=0;" edge="1" parent="1" source="WXssAixfPL5VUBBnaXDJ-33" target="WXssAixfPL5VUBBnaXDJ-34">
          <mxGeometry relative="1" as="geometry">
            <mxPoint x="952.5" y="677" as="targetPoint" />
          </mxGeometry>
        </mxCell>
        <mxCell id="WXssAixfPL5VUBBnaXDJ-33" value="Last Level" style="rhombus;whiteSpace=wrap;html=1;fillColor=none;rounded=0;" vertex="1" parent="1">
          <mxGeometry x="734" y="637" width="119" height="80" as="geometry" />
        </mxCell>
        <mxCell id="WXssAixfPL5VUBBnaXDJ-34" value="End&amp;nbsp;" style="ellipse;whiteSpace=wrap;html=1;fillColor=none;" vertex="1" parent="1">
          <mxGeometry x="925" y="637" width="120" height="80" as="geometry" />
        </mxCell>
      </root>
    </mxGraphModel>
  </diagram>
  <diagram id="PbDLfOJkAzMAbTJ38ccF" name="UseCase">
    <mxGraphModel dx="1730" dy="480" grid="1" gridSize="10" guides="1" tooltips="1" connect="1" arrows="1" fold="1" page="1" pageScale="1" pageWidth="850" pageHeight="1100" math="0" shadow="0">
      <root>
        <mxCell id="0" />
        <mxCell id="1" parent="0" />
        <mxCell id="8RCbWAyZ-VbWrk531Ef5-1" value="Player" style="shape=umlActor;verticalLabelPosition=bottom;verticalAlign=top;html=1;outlineConnect=0;fillColor=none;" vertex="1" parent="1">
          <mxGeometry x="185" y="170" width="30" height="60" as="geometry" />
        </mxCell>
        <mxCell id="8RCbWAyZ-VbWrk531Ef5-2" value="" style="endArrow=classic;html=1;rounded=0;entryX=1;entryY=0.5;entryDx=0;entryDy=0;exitX=0;exitY=0.5;exitDx=0;exitDy=0;" edge="1" parent="1" source="8RCbWAyZ-VbWrk531Ef5-15" target="8RCbWAyZ-VbWrk531Ef5-6">
          <mxGeometry width="50" height="50" relative="1" as="geometry">
            <mxPoint x="75" y="381" as="sourcePoint" />
            <mxPoint x="125" y="331" as="targetPoint" />
          </mxGeometry>
        </mxCell>
        <mxCell id="8RCbWAyZ-VbWrk531Ef5-3" value="LoadLevel" style="ellipse;whiteSpace=wrap;html=1;fillColor=none;" vertex="1" parent="1">
          <mxGeometry x="456" y="448" width="79.5" height="53" as="geometry" />
        </mxCell>
        <mxCell id="8RCbWAyZ-VbWrk531Ef5-4" value="" style="group" connectable="0" vertex="1" parent="1">
          <mxGeometry x="-203" y="226" width="154" height="241" as="geometry" />
        </mxCell>
        <mxCell id="8RCbWAyZ-VbWrk531Ef5-5" value="" style="rounded=0;whiteSpace=wrap;html=1;fillColor=none;" vertex="1" parent="8RCbWAyZ-VbWrk531Ef5-4">
          <mxGeometry width="154" height="241" as="geometry" />
        </mxCell>
        <mxCell id="8RCbWAyZ-VbWrk531Ef5-6" value="Sound" style="ellipse;whiteSpace=wrap;html=1;fillColor=none;" vertex="1" parent="8RCbWAyZ-VbWrk531Ef5-4">
          <mxGeometry x="61" y="87" width="81" height="53" as="geometry" />
        </mxCell>
        <mxCell id="8RCbWAyZ-VbWrk531Ef5-7" value="Turn Off" style="ellipse;whiteSpace=wrap;html=1;fillColor=none;" vertex="1" parent="8RCbWAyZ-VbWrk531Ef5-4">
          <mxGeometry x="17" y="167" width="79.5" height="53" as="geometry" />
        </mxCell>
        <mxCell id="8RCbWAyZ-VbWrk531Ef5-8" value="Turn On" style="ellipse;whiteSpace=wrap;html=1;fillColor=none;" vertex="1" parent="8RCbWAyZ-VbWrk531Ef5-4">
          <mxGeometry x="17" y="15" width="79.5" height="53" as="geometry" />
        </mxCell>
        <mxCell id="8RCbWAyZ-VbWrk531Ef5-9" value="" style="endArrow=classic;html=1;rounded=0;entryX=0.5;entryY=0;entryDx=0;entryDy=0;exitX=0;exitY=1;exitDx=0;exitDy=0;" edge="1" parent="8RCbWAyZ-VbWrk531Ef5-4" source="8RCbWAyZ-VbWrk531Ef5-6" target="8RCbWAyZ-VbWrk531Ef5-7">
          <mxGeometry width="50" height="50" relative="1" as="geometry">
            <mxPoint x="83" y="105" as="sourcePoint" />
            <mxPoint x="67" y="78" as="targetPoint" />
          </mxGeometry>
        </mxCell>
        <mxCell id="8RCbWAyZ-VbWrk531Ef5-10" value="" style="endArrow=classic;html=1;rounded=0;entryX=0.5;entryY=1;entryDx=0;entryDy=0;exitX=0;exitY=0;exitDx=0;exitDy=0;" edge="1" parent="8RCbWAyZ-VbWrk531Ef5-4" source="8RCbWAyZ-VbWrk531Ef5-6" target="8RCbWAyZ-VbWrk531Ef5-8">
          <mxGeometry width="50" height="50" relative="1" as="geometry">
            <mxPoint x="190" y="60" as="sourcePoint" />
            <mxPoint x="152" y="124" as="targetPoint" />
          </mxGeometry>
        </mxCell>
        <mxCell id="8RCbWAyZ-VbWrk531Ef5-11" value="Setting" style="text;html=1;align=center;verticalAlign=middle;whiteSpace=wrap;rounded=0;" vertex="1" parent="8RCbWAyZ-VbWrk531Ef5-4">
          <mxGeometry x="89" y="6" width="60" height="30" as="geometry" />
        </mxCell>
        <mxCell id="8RCbWAyZ-VbWrk531Ef5-12" value="" style="group" connectable="0" vertex="1" parent="1">
          <mxGeometry x="11" y="273" width="446" height="150" as="geometry" />
        </mxCell>
        <mxCell id="8RCbWAyZ-VbWrk531Ef5-13" value="" style="group" connectable="0" vertex="1" parent="8RCbWAyZ-VbWrk531Ef5-12">
          <mxGeometry width="446" height="150" as="geometry" />
        </mxCell>
        <mxCell id="8RCbWAyZ-VbWrk531Ef5-14" value="" style="rounded=0;whiteSpace=wrap;html=1;fillColor=none;" vertex="1" parent="8RCbWAyZ-VbWrk531Ef5-13">
          <mxGeometry width="446" height="150" as="geometry" />
        </mxCell>
        <mxCell id="8RCbWAyZ-VbWrk531Ef5-15" value="Setting" style="ellipse;whiteSpace=wrap;html=1;fillColor=none;" vertex="1" parent="8RCbWAyZ-VbWrk531Ef5-13">
          <mxGeometry x="27" y="35" width="79.5" height="53" as="geometry" />
        </mxCell>
        <mxCell id="8RCbWAyZ-VbWrk531Ef5-16" value="Quit" style="ellipse;whiteSpace=wrap;html=1;fillColor=none;" vertex="1" parent="8RCbWAyZ-VbWrk531Ef5-13">
          <mxGeometry x="132" y="35" width="79.5" height="53" as="geometry" />
        </mxCell>
        <mxCell id="8RCbWAyZ-VbWrk531Ef5-17" value="How to play" style="ellipse;whiteSpace=wrap;html=1;fillColor=none;" vertex="1" parent="8RCbWAyZ-VbWrk531Ef5-13">
          <mxGeometry x="237" y="35" width="79.5" height="53" as="geometry" />
        </mxCell>
        <mxCell id="8RCbWAyZ-VbWrk531Ef5-18" value="Play Game" style="ellipse;whiteSpace=wrap;html=1;fillColor=none;" vertex="1" parent="8RCbWAyZ-VbWrk531Ef5-13">
          <mxGeometry x="342" y="31" width="79.5" height="53" as="geometry" />
        </mxCell>
        <mxCell id="8RCbWAyZ-VbWrk531Ef5-19" value="Main Menu" style="text;html=1;align=center;verticalAlign=middle;whiteSpace=wrap;rounded=0;" vertex="1" parent="8RCbWAyZ-VbWrk531Ef5-13">
          <mxGeometry x="170" y="115" width="86" height="30" as="geometry" />
        </mxCell>
        <mxCell id="8RCbWAyZ-VbWrk531Ef5-20" value="" style="group" connectable="0" vertex="1" parent="1">
          <mxGeometry x="41" y="459" width="376" height="228" as="geometry" />
        </mxCell>
        <mxCell id="8RCbWAyZ-VbWrk531Ef5-21" value="" style="endArrow=classic;html=1;rounded=0;entryX=0;entryY=0;entryDx=0;entryDy=0;" edge="1" parent="8RCbWAyZ-VbWrk531Ef5-20" target="8RCbWAyZ-VbWrk531Ef5-27">
          <mxGeometry width="50" height="50" relative="1" as="geometry">
            <mxPoint x="188" y="71" as="sourcePoint" />
            <mxPoint x="200" y="138" as="targetPoint" />
          </mxGeometry>
        </mxCell>
        <mxCell id="8RCbWAyZ-VbWrk531Ef5-22" value="" style="group" connectable="0" vertex="1" parent="8RCbWAyZ-VbWrk531Ef5-20">
          <mxGeometry width="376" height="228" as="geometry" />
        </mxCell>
        <mxCell id="8RCbWAyZ-VbWrk531Ef5-23" value="" style="rounded=0;whiteSpace=wrap;html=1;fillColor=none;" vertex="1" parent="8RCbWAyZ-VbWrk531Ef5-22">
          <mxGeometry width="376" height="228" as="geometry" />
        </mxCell>
        <mxCell id="8RCbWAyZ-VbWrk531Ef5-24" value="Pause" style="ellipse;whiteSpace=wrap;html=1;fillColor=none;" vertex="1" parent="8RCbWAyZ-VbWrk531Ef5-22">
          <mxGeometry x="148" y="16" width="79.5" height="53" as="geometry" />
        </mxCell>
        <mxCell id="8RCbWAyZ-VbWrk531Ef5-25" value="Replay" style="ellipse;whiteSpace=wrap;html=1;fillColor=none;" vertex="1" parent="8RCbWAyZ-VbWrk531Ef5-22">
          <mxGeometry x="31" y="118" width="79.5" height="53" as="geometry" />
        </mxCell>
        <mxCell id="8RCbWAyZ-VbWrk531Ef5-26" value="Resume" style="ellipse;whiteSpace=wrap;html=1;fillColor=none;" vertex="1" parent="8RCbWAyZ-VbWrk531Ef5-22">
          <mxGeometry x="151" y="128" width="79.5" height="53" as="geometry" />
        </mxCell>
        <mxCell id="8RCbWAyZ-VbWrk531Ef5-27" value="BackToMenu" style="ellipse;whiteSpace=wrap;html=1;fillColor=none;" vertex="1" parent="8RCbWAyZ-VbWrk531Ef5-22">
          <mxGeometry x="284" y="118" width="79.5" height="53" as="geometry" />
        </mxCell>
        <mxCell id="8RCbWAyZ-VbWrk531Ef5-28" value="" style="endArrow=classic;html=1;rounded=0;entryX=0.5;entryY=0;entryDx=0;entryDy=0;exitX=0.5;exitY=1;exitDx=0;exitDy=0;" edge="1" parent="8RCbWAyZ-VbWrk531Ef5-22" source="8RCbWAyZ-VbWrk531Ef5-24" target="8RCbWAyZ-VbWrk531Ef5-25">
          <mxGeometry width="50" height="50" relative="1" as="geometry">
            <mxPoint x="1" y="-104" as="sourcePoint" />
            <mxPoint x="-91" y="-98" as="targetPoint" />
          </mxGeometry>
        </mxCell>
        <mxCell id="8RCbWAyZ-VbWrk531Ef5-29" value="" style="endArrow=classic;html=1;rounded=0;exitX=0.5;exitY=1;exitDx=0;exitDy=0;" edge="1" parent="8RCbWAyZ-VbWrk531Ef5-22" source="8RCbWAyZ-VbWrk531Ef5-24" target="8RCbWAyZ-VbWrk531Ef5-26">
          <mxGeometry width="50" height="50" relative="1" as="geometry">
            <mxPoint x="188" y="67" as="sourcePoint" />
            <mxPoint x="81" y="128" as="targetPoint" />
          </mxGeometry>
        </mxCell>
        <mxCell id="8RCbWAyZ-VbWrk531Ef5-30" value="ControlMain" style="ellipse;whiteSpace=wrap;html=1;fillColor=none;" vertex="1" parent="8RCbWAyZ-VbWrk531Ef5-22">
          <mxGeometry x="274" y="33" width="79.5" height="53" as="geometry" />
        </mxCell>
        <mxCell id="8RCbWAyZ-VbWrk531Ef5-31" value="Gameplay" style="text;html=1;align=center;verticalAlign=middle;whiteSpace=wrap;rounded=0;" vertex="1" parent="8RCbWAyZ-VbWrk531Ef5-22">
          <mxGeometry x="20" y="12" width="60" height="30" as="geometry" />
        </mxCell>
        <mxCell id="8RCbWAyZ-VbWrk531Ef5-32" value="" style="endArrow=classic;html=1;rounded=0;entryX=0.5;entryY=0;entryDx=0;entryDy=0;" edge="1" parent="1" target="8RCbWAyZ-VbWrk531Ef5-18">
          <mxGeometry width="50" height="50" relative="1" as="geometry">
            <mxPoint x="204" y="256" as="sourcePoint" />
            <mxPoint x="302" y="170" as="targetPoint" />
          </mxGeometry>
        </mxCell>
        <mxCell id="8RCbWAyZ-VbWrk531Ef5-33" value="" style="endArrow=classic;html=1;rounded=0;entryX=0.5;entryY=0;entryDx=0;entryDy=0;" edge="1" parent="1" target="8RCbWAyZ-VbWrk531Ef5-17">
          <mxGeometry width="50" height="50" relative="1" as="geometry">
            <mxPoint x="202" y="258" as="sourcePoint" />
            <mxPoint x="368" y="327" as="targetPoint" />
          </mxGeometry>
        </mxCell>
        <mxCell id="8RCbWAyZ-VbWrk531Ef5-34" value="" style="endArrow=classic;html=1;rounded=0;entryX=0.5;entryY=0;entryDx=0;entryDy=0;" edge="1" parent="1" target="8RCbWAyZ-VbWrk531Ef5-16">
          <mxGeometry width="50" height="50" relative="1" as="geometry">
            <mxPoint x="202" y="255" as="sourcePoint" />
            <mxPoint x="343" y="355" as="targetPoint" />
          </mxGeometry>
        </mxCell>
        <mxCell id="8RCbWAyZ-VbWrk531Ef5-35" value="" style="endArrow=classic;html=1;rounded=0;entryX=0.5;entryY=0;entryDx=0;entryDy=0;" edge="1" parent="1" target="8RCbWAyZ-VbWrk531Ef5-15">
          <mxGeometry width="50" height="50" relative="1" as="geometry">
            <mxPoint x="204" y="255" as="sourcePoint" />
            <mxPoint x="343" y="355" as="targetPoint" />
          </mxGeometry>
        </mxCell>
        <mxCell id="8RCbWAyZ-VbWrk531Ef5-36" value="" style="endArrow=classic;html=1;rounded=0;exitX=0.5;exitY=1;exitDx=0;exitDy=0;entryX=0.403;entryY=0.028;entryDx=0;entryDy=0;entryPerimeter=0;" edge="1" parent="1" source="8RCbWAyZ-VbWrk531Ef5-18" target="8RCbWAyZ-VbWrk531Ef5-24">
          <mxGeometry width="50" height="50" relative="1" as="geometry">
            <mxPoint x="239" y="549" as="sourcePoint" />
            <mxPoint x="232" y="491" as="targetPoint" />
          </mxGeometry>
        </mxCell>
        <mxCell id="8RCbWAyZ-VbWrk531Ef5-37" value="" style="endArrow=classic;html=1;rounded=0;exitX=0.5;exitY=1;exitDx=0;exitDy=0;" edge="1" parent="1" source="8RCbWAyZ-VbWrk531Ef5-18" target="8RCbWAyZ-VbWrk531Ef5-30">
          <mxGeometry width="50" height="50" relative="1" as="geometry">
            <mxPoint x="375" y="359" as="sourcePoint" />
            <mxPoint x="231" y="497" as="targetPoint" />
          </mxGeometry>
        </mxCell>
        <mxCell id="8RCbWAyZ-VbWrk531Ef5-38" value="" style="endArrow=classic;html=1;rounded=0;exitX=1;exitY=0.5;exitDx=0;exitDy=0;entryX=0.5;entryY=0;entryDx=0;entryDy=0;" edge="1" parent="1" source="8RCbWAyZ-VbWrk531Ef5-18" target="8RCbWAyZ-VbWrk531Ef5-3">
          <mxGeometry width="50" height="50" relative="1" as="geometry">
            <mxPoint x="403" y="367" as="sourcePoint" />
            <mxPoint x="370" y="513" as="targetPoint" />
          </mxGeometry>
        </mxCell>
        <mxCell id="8RCbWAyZ-VbWrk531Ef5-39" value="" style="endArrow=classic;html=1;rounded=0;exitX=1;exitY=0.5;exitDx=0;exitDy=0;" edge="1" parent="1" source="8RCbWAyZ-VbWrk531Ef5-18" target="8RCbWAyZ-VbWrk531Ef5-44">
          <mxGeometry width="50" height="50" relative="1" as="geometry">
            <mxPoint x="442" y="341" as="sourcePoint" />
            <mxPoint x="506" y="458" as="targetPoint" />
          </mxGeometry>
        </mxCell>
        <mxCell id="8RCbWAyZ-VbWrk531Ef5-40" value="" style="endArrow=classic;html=1;rounded=0;exitX=1;exitY=0.5;exitDx=0;exitDy=0;entryX=0;entryY=0.5;entryDx=0;entryDy=0;" edge="1" parent="1" source="8RCbWAyZ-VbWrk531Ef5-18" target="8RCbWAyZ-VbWrk531Ef5-45">
          <mxGeometry width="50" height="50" relative="1" as="geometry">
            <mxPoint x="442" y="341" as="sourcePoint" />
            <mxPoint x="609" y="295" as="targetPoint" />
          </mxGeometry>
        </mxCell>
        <mxCell id="8RCbWAyZ-VbWrk531Ef5-41" value="" style="endArrow=classic;html=1;rounded=0;exitX=1;exitY=0.5;exitDx=0;exitDy=0;entryX=0;entryY=0.5;entryDx=0;entryDy=0;" edge="1" parent="1" source="8RCbWAyZ-VbWrk531Ef5-3" target="8RCbWAyZ-VbWrk531Ef5-46">
          <mxGeometry width="50" height="50" relative="1" as="geometry">
            <mxPoint x="442" y="341" as="sourcePoint" />
            <mxPoint x="506" y="458" as="targetPoint" />
          </mxGeometry>
        </mxCell>
        <mxCell id="8RCbWAyZ-VbWrk531Ef5-42" value="" style="group" connectable="0" vertex="1" parent="1">
          <mxGeometry x="563" y="213" width="163" height="283" as="geometry" />
        </mxCell>
        <mxCell id="8RCbWAyZ-VbWrk531Ef5-43" value="" style="rounded=0;whiteSpace=wrap;html=1;fillColor=none;" vertex="1" parent="8RCbWAyZ-VbWrk531Ef5-42">
          <mxGeometry width="163" height="283" as="geometry" />
        </mxCell>
        <mxCell id="8RCbWAyZ-VbWrk531Ef5-44" value="Replay" style="ellipse;whiteSpace=wrap;html=1;fillColor=none;" vertex="1" parent="8RCbWAyZ-VbWrk531Ef5-42">
          <mxGeometry x="33" y="36" width="79.5" height="53" as="geometry" />
        </mxCell>
        <mxCell id="8RCbWAyZ-VbWrk531Ef5-45" value="BackToMenu" style="ellipse;whiteSpace=wrap;html=1;fillColor=none;" vertex="1" parent="8RCbWAyZ-VbWrk531Ef5-42">
          <mxGeometry x="37" y="127" width="79.5" height="53" as="geometry" />
        </mxCell>
        <mxCell id="8RCbWAyZ-VbWrk531Ef5-46" value="NextLevel" style="ellipse;whiteSpace=wrap;html=1;fillColor=none;" vertex="1" parent="8RCbWAyZ-VbWrk531Ef5-42">
          <mxGeometry x="37" y="218" width="79.5" height="53" as="geometry" />
        </mxCell>
        <mxCell id="8RCbWAyZ-VbWrk531Ef5-47" value="Pause" style="text;html=1;align=center;verticalAlign=middle;whiteSpace=wrap;rounded=0;" vertex="1" parent="8RCbWAyZ-VbWrk531Ef5-42">
          <mxGeometry x="93" y="9" width="60" height="30" as="geometry" />
        </mxCell>
      </root>
    </mxGraphModel>
  </diagram>
  <diagram id="eWOgPmrRBhXA8ESg6_4h" name="DomainModel">
    <mxGraphModel dx="1730" dy="480" grid="1" gridSize="10" guides="1" tooltips="1" connect="1" arrows="1" fold="1" page="1" pageScale="1" pageWidth="850" pageHeight="1100" math="0" shadow="0">
      <root>
        <mxCell id="0" />
        <mxCell id="1" parent="0" />
        <mxCell id="C2pj4KTAvhGHyhV9shD7-1" value="Game" style="rounded=0;whiteSpace=wrap;html=1;fillColor=none;" vertex="1" parent="1">
          <mxGeometry x="379" y="129" width="120" height="60" as="geometry" />
        </mxCell>
        <mxCell id="C2pj4KTAvhGHyhV9shD7-2" value="Player" style="swimlane;fontStyle=0;childLayout=stackLayout;horizontal=1;startSize=26;fillColor=none;horizontalStack=0;resizeParent=1;resizeParentMax=0;resizeLast=0;collapsible=1;marginBottom=0;whiteSpace=wrap;html=1;" vertex="1" parent="1">
          <mxGeometry x="91" y="291" width="140" height="78" as="geometry">
            <mxRectangle x="128" y="255" width="70" height="26" as="alternateBounds" />
          </mxGeometry>
        </mxCell>
        <mxCell id="C2pj4KTAvhGHyhV9shD7-3" value="+ health: float" style="text;strokeColor=none;fillColor=none;align=left;verticalAlign=top;spacingLeft=4;spacingRight=4;overflow=hidden;rotatable=0;points=[[0,0.5],[1,0.5]];portConstraint=eastwest;whiteSpace=wrap;html=1;" vertex="1" parent="C2pj4KTAvhGHyhV9shD7-2">
          <mxGeometry y="26" width="140" height="26" as="geometry" />
        </mxCell>
        <mxCell id="C2pj4KTAvhGHyhV9shD7-4" value="+ speed: float" style="text;strokeColor=none;fillColor=none;align=left;verticalAlign=top;spacingLeft=4;spacingRight=4;overflow=hidden;rotatable=0;points=[[0,0.5],[1,0.5]];portConstraint=eastwest;whiteSpace=wrap;html=1;" vertex="1" parent="C2pj4KTAvhGHyhV9shD7-2">
          <mxGeometry y="52" width="140" height="26" as="geometry" />
        </mxCell>
        <mxCell id="C2pj4KTAvhGHyhV9shD7-5" value="Enemy" style="swimlane;fontStyle=0;childLayout=stackLayout;horizontal=1;startSize=26;fillColor=none;horizontalStack=0;resizeParent=1;resizeParentMax=0;resizeLast=0;collapsible=1;marginBottom=0;whiteSpace=wrap;html=1;" vertex="1" parent="1">
          <mxGeometry x="368" y="419" width="140" height="130" as="geometry">
            <mxRectangle x="337" y="252" width="72" height="26" as="alternateBounds" />
          </mxGeometry>
        </mxCell>
        <mxCell id="C2pj4KTAvhGHyhV9shD7-6" value="+ health: float" style="text;strokeColor=none;fillColor=none;align=left;verticalAlign=top;spacingLeft=4;spacingRight=4;overflow=hidden;rotatable=0;points=[[0,0.5],[1,0.5]];portConstraint=eastwest;whiteSpace=wrap;html=1;" vertex="1" parent="C2pj4KTAvhGHyhV9shD7-5">
          <mxGeometry y="26" width="140" height="26" as="geometry" />
        </mxCell>
        <mxCell id="C2pj4KTAvhGHyhV9shD7-7" value="+ damage: float" style="text;strokeColor=none;fillColor=none;align=left;verticalAlign=top;spacingLeft=4;spacingRight=4;overflow=hidden;rotatable=0;points=[[0,0.5],[1,0.5]];portConstraint=eastwest;whiteSpace=wrap;html=1;" vertex="1" parent="C2pj4KTAvhGHyhV9shD7-5">
          <mxGeometry y="52" width="140" height="26" as="geometry" />
        </mxCell>
        <mxCell id="C2pj4KTAvhGHyhV9shD7-8" value="+ range: float" style="text;strokeColor=none;fillColor=none;align=left;verticalAlign=top;spacingLeft=4;spacingRight=4;overflow=hidden;rotatable=0;points=[[0,0.5],[1,0.5]];portConstraint=eastwest;whiteSpace=wrap;html=1;" vertex="1" parent="C2pj4KTAvhGHyhV9shD7-5">
          <mxGeometry y="78" width="140" height="26" as="geometry" />
        </mxCell>
        <mxCell id="C2pj4KTAvhGHyhV9shD7-9" value="+ speed: float" style="text;strokeColor=none;fillColor=none;align=left;verticalAlign=top;spacingLeft=4;spacingRight=4;overflow=hidden;rotatable=0;points=[[0,0.5],[1,0.5]];portConstraint=eastwest;whiteSpace=wrap;html=1;" vertex="1" parent="C2pj4KTAvhGHyhV9shD7-5">
          <mxGeometry y="104" width="140" height="26" as="geometry" />
        </mxCell>
        <mxCell id="C2pj4KTAvhGHyhV9shD7-10" value="" style="endArrow=block;dashed=1;endFill=0;endSize=12;html=1;rounded=0;entryX=0;entryY=0.5;entryDx=0;entryDy=0;exitX=0.5;exitY=0;exitDx=0;exitDy=0;" edge="1" parent="1" source="C2pj4KTAvhGHyhV9shD7-13" target="C2pj4KTAvhGHyhV9shD7-7">
          <mxGeometry width="160" relative="1" as="geometry">
            <mxPoint x="297" y="428" as="sourcePoint" />
            <mxPoint x="457" y="428" as="targetPoint" />
            <Array as="points">
              <mxPoint x="189" y="484" />
            </Array>
          </mxGeometry>
        </mxCell>
        <mxCell id="C2pj4KTAvhGHyhV9shD7-11" value="" style="group" connectable="0" vertex="1" parent="1">
          <mxGeometry x="-12" y="572" width="395" height="148" as="geometry" />
        </mxCell>
        <mxCell id="C2pj4KTAvhGHyhV9shD7-12" value="Slime" style="swimlane;fontStyle=0;childLayout=stackLayout;horizontal=1;startSize=26;fillColor=none;horizontalStack=0;resizeParent=1;resizeParentMax=0;resizeLast=0;collapsible=1;marginBottom=0;whiteSpace=wrap;html=1;" vertex="1" parent="C2pj4KTAvhGHyhV9shD7-11">
          <mxGeometry x="255" width="140" height="52" as="geometry" />
        </mxCell>
        <mxCell id="C2pj4KTAvhGHyhV9shD7-13" value="Boar" style="swimlane;fontStyle=0;childLayout=stackLayout;horizontal=1;startSize=26;fillColor=none;horizontalStack=0;resizeParent=1;resizeParentMax=0;resizeLast=0;collapsible=1;marginBottom=0;whiteSpace=wrap;html=1;" vertex="1" parent="C2pj4KTAvhGHyhV9shD7-11">
          <mxGeometry x="131" y="96" width="140" height="52" as="geometry" />
        </mxCell>
        <mxCell id="C2pj4KTAvhGHyhV9shD7-14" value="Bee" style="swimlane;fontStyle=0;childLayout=stackLayout;horizontal=1;startSize=26;fillColor=none;horizontalStack=0;resizeParent=1;resizeParentMax=0;resizeLast=0;collapsible=1;marginBottom=0;whiteSpace=wrap;html=1;" vertex="1" parent="C2pj4KTAvhGHyhV9shD7-11">
          <mxGeometry width="140" height="52" as="geometry" />
        </mxCell>
        <mxCell id="C2pj4KTAvhGHyhV9shD7-15" value="" style="endArrow=none;dashed=1;html=1;rounded=0;exitX=1;exitY=0.5;exitDx=0;exitDy=0;" edge="1" parent="C2pj4KTAvhGHyhV9shD7-11" source="C2pj4KTAvhGHyhV9shD7-14" target="C2pj4KTAvhGHyhV9shD7-12">
          <mxGeometry width="50" height="50" relative="1" as="geometry">
            <mxPoint x="178" y="27" as="sourcePoint" />
            <mxPoint x="228" y="-23" as="targetPoint" />
          </mxGeometry>
        </mxCell>
        <mxCell id="C2pj4KTAvhGHyhV9shD7-17" style="edgeStyle=orthogonalEdgeStyle;rounded=0;orthogonalLoop=1;jettySize=auto;html=1;entryX=0.5;entryY=1;entryDx=0;entryDy=0;" edge="1" parent="1" source="C2pj4KTAvhGHyhV9shD7-18" target="C2pj4KTAvhGHyhV9shD7-1">
          <mxGeometry relative="1" as="geometry" />
        </mxCell>
        <mxCell id="C2pj4KTAvhGHyhV9shD7-18" value="Level" style="swimlane;fontStyle=0;childLayout=stackLayout;horizontal=1;startSize=26;fillColor=none;horizontalStack=0;resizeParent=1;resizeParentMax=0;resizeLast=0;collapsible=1;marginBottom=0;whiteSpace=wrap;html=1;" vertex="1" parent="1">
          <mxGeometry x="369" y="291" width="140" height="52" as="geometry" />
        </mxCell>
        <mxCell id="C2pj4KTAvhGHyhV9shD7-19" value="+ level num: int" style="text;strokeColor=none;fillColor=none;align=left;verticalAlign=top;spacingLeft=4;spacingRight=4;overflow=hidden;rotatable=0;points=[[0,0.5],[1,0.5]];portConstraint=eastwest;whiteSpace=wrap;html=1;" vertex="1" parent="C2pj4KTAvhGHyhV9shD7-18">
          <mxGeometry y="26" width="140" height="26" as="geometry" />
        </mxCell>
        <mxCell id="C2pj4KTAvhGHyhV9shD7-20" style="edgeStyle=orthogonalEdgeStyle;rounded=0;orthogonalLoop=1;jettySize=auto;html=1;entryX=0.49;entryY=1;entryDx=0;entryDy=0;entryPerimeter=0;" edge="1" parent="1" source="C2pj4KTAvhGHyhV9shD7-5" target="C2pj4KTAvhGHyhV9shD7-19">
          <mxGeometry relative="1" as="geometry" />
        </mxCell>
        <mxCell id="C2pj4KTAvhGHyhV9shD7-32" value="" style="endArrow=none;html=1;rounded=0;" edge="1" parent="1">
          <mxGeometry width="50" height="50" relative="1" as="geometry">
            <mxPoint x="165" y="249" as="sourcePoint" />
            <mxPoint x="753" y="250" as="targetPoint" />
          </mxGeometry>
        </mxCell>
        <mxCell id="C2pj4KTAvhGHyhV9shD7-33" value="" style="endArrow=none;html=1;rounded=0;exitX=0.5;exitY=0;exitDx=0;exitDy=0;" edge="1" parent="1" source="C2pj4KTAvhGHyhV9shD7-2">
          <mxGeometry width="50" height="50" relative="1" as="geometry">
            <mxPoint x="88" y="263" as="sourcePoint" />
            <mxPoint x="165" y="249" as="targetPoint" />
            <Array as="points" />
          </mxGeometry>
        </mxCell>
        <mxCell id="C2pj4KTAvhGHyhV9shD7-34" value="" style="endArrow=none;html=1;rounded=0;exitX=0.5;exitY=0;exitDx=0;exitDy=0;" edge="1" parent="1">
          <mxGeometry width="50" height="50" relative="1" as="geometry">
            <mxPoint x="751" y="291" as="sourcePoint" />
            <mxPoint x="753" y="250" as="targetPoint" />
            <Array as="points" />
          </mxGeometry>
        </mxCell>
      </root>
    </mxGraphModel>
  </diagram>
  <diagram id="fgLog6keHxkcwpZCzR4F" name="Class Diagram">
    <mxGraphModel dx="2023" dy="1740" grid="1" gridSize="10" guides="1" tooltips="1" connect="1" arrows="1" fold="1" page="1" pageScale="1" pageWidth="850" pageHeight="1100" math="0" shadow="0">
      <root>
        <mxCell id="0" />
        <mxCell id="1" parent="0" />
        <mxCell id="OusUOf15VLRuK_A5Rpda-1" value="mainMenu" style="swimlane;fontStyle=1;align=center;verticalAlign=top;childLayout=stackLayout;horizontal=1;startSize=26;horizontalStack=0;resizeParent=1;resizeParentMax=0;resizeLast=0;collapsible=1;marginBottom=0;whiteSpace=wrap;html=1;fillColor=none;" vertex="1" parent="1">
          <mxGeometry x="-253" y="10" width="160" height="130" as="geometry" />
        </mxCell>
        <mxCell id="OusUOf15VLRuK_A5Rpda-2" value="+ Play(): void" style="text;strokeColor=none;fillColor=none;align=left;verticalAlign=top;spacingLeft=4;spacingRight=4;overflow=hidden;rotatable=0;points=[[0,0.5],[1,0.5]];portConstraint=eastwest;whiteSpace=wrap;html=1;" vertex="1" parent="OusUOf15VLRuK_A5Rpda-1">
          <mxGeometry y="26" width="160" height="26" as="geometry" />
        </mxCell>
        <mxCell id="OusUOf15VLRuK_A5Rpda-3" value="+ Setting(): void" style="text;strokeColor=none;fillColor=none;align=left;verticalAlign=top;spacingLeft=4;spacingRight=4;overflow=hidden;rotatable=0;points=[[0,0.5],[1,0.5]];portConstraint=eastwest;whiteSpace=wrap;html=1;" vertex="1" parent="OusUOf15VLRuK_A5Rpda-1">
          <mxGeometry y="52" width="160" height="26" as="geometry" />
        </mxCell>
        <mxCell id="OusUOf15VLRuK_A5Rpda-4" value="+ HowToPlay(): void" style="text;strokeColor=none;fillColor=none;align=left;verticalAlign=top;spacingLeft=4;spacingRight=4;overflow=hidden;rotatable=0;points=[[0,0.5],[1,0.5]];portConstraint=eastwest;whiteSpace=wrap;html=1;" vertex="1" parent="OusUOf15VLRuK_A5Rpda-1">
          <mxGeometry y="78" width="160" height="26" as="geometry" />
        </mxCell>
        <mxCell id="OusUOf15VLRuK_A5Rpda-5" value="+ Quit(): void" style="text;strokeColor=none;fillColor=none;align=left;verticalAlign=top;spacingLeft=4;spacingRight=4;overflow=hidden;rotatable=0;points=[[0,0.5],[1,0.5]];portConstraint=eastwest;whiteSpace=wrap;html=1;" vertex="1" parent="OusUOf15VLRuK_A5Rpda-1">
          <mxGeometry y="104" width="160" height="26" as="geometry" />
        </mxCell>
        <mxCell id="OusUOf15VLRuK_A5Rpda-6" value="mainCharactor" style="swimlane;fontStyle=1;align=center;verticalAlign=top;childLayout=stackLayout;horizontal=1;startSize=26;horizontalStack=0;resizeParent=1;resizeParentMax=0;resizeLast=0;collapsible=1;marginBottom=0;whiteSpace=wrap;html=1;fillColor=none;" vertex="1" parent="1">
          <mxGeometry x="-33" y="272" width="160" height="108" as="geometry" />
        </mxCell>
        <mxCell id="OusUOf15VLRuK_A5Rpda-7" value="&lt;div&gt;- jumpForce: float&lt;/div&gt;" style="text;strokeColor=none;fillColor=none;align=left;verticalAlign=top;spacingLeft=4;spacingRight=4;overflow=hidden;rotatable=0;points=[[0,0.5],[1,0.5]];portConstraint=eastwest;whiteSpace=wrap;html=1;" vertex="1" parent="OusUOf15VLRuK_A5Rpda-6">
          <mxGeometry y="26" width="160" height="29" as="geometry" />
        </mxCell>
        <mxCell id="OusUOf15VLRuK_A5Rpda-8" value="" style="line;strokeWidth=1;fillColor=none;align=left;verticalAlign=middle;spacingTop=-1;spacingLeft=3;spacingRight=3;rotatable=0;labelPosition=right;points=[];portConstraint=eastwest;strokeColor=inherit;" vertex="1" parent="OusUOf15VLRuK_A5Rpda-6">
          <mxGeometry y="55" width="160" height="8" as="geometry" />
        </mxCell>
        <mxCell id="OusUOf15VLRuK_A5Rpda-9" value="+ Move(): void&lt;div&gt;+ Jump(): void&lt;/div&gt;" style="text;strokeColor=none;fillColor=none;align=left;verticalAlign=top;spacingLeft=4;spacingRight=4;overflow=hidden;rotatable=0;points=[[0,0.5],[1,0.5]];portConstraint=eastwest;whiteSpace=wrap;html=1;" vertex="1" parent="OusUOf15VLRuK_A5Rpda-6">
          <mxGeometry y="63" width="160" height="45" as="geometry" />
        </mxCell>
        <mxCell id="OusUOf15VLRuK_A5Rpda-10" style="edgeStyle=orthogonalEdgeStyle;rounded=0;orthogonalLoop=1;jettySize=auto;html=1;entryX=0.5;entryY=0;entryDx=0;entryDy=0;endArrow=none;endFill=0;exitX=0.5;exitY=1;exitDx=0;exitDy=0;" edge="1" parent="1" source="OusUOf15VLRuK_A5Rpda-14" target="OusUOf15VLRuK_A5Rpda-1">
          <mxGeometry relative="1" as="geometry" />
        </mxCell>
        <mxCell id="OusUOf15VLRuK_A5Rpda-11" style="edgeStyle=orthogonalEdgeStyle;rounded=0;orthogonalLoop=1;jettySize=auto;html=1;entryX=0.5;entryY=0;entryDx=0;entryDy=0;endArrow=none;endFill=0;exitX=0.5;exitY=1;exitDx=0;exitDy=0;" edge="1" parent="1" source="OusUOf15VLRuK_A5Rpda-14" target="OusUOf15VLRuK_A5Rpda-25">
          <mxGeometry relative="1" as="geometry" />
        </mxCell>
        <mxCell id="OusUOf15VLRuK_A5Rpda-12" style="edgeStyle=orthogonalEdgeStyle;rounded=0;orthogonalLoop=1;jettySize=auto;html=1;entryX=0.5;entryY=0;entryDx=0;entryDy=0;endArrow=none;endFill=0;exitX=0.5;exitY=1;exitDx=0;exitDy=0;" edge="1" parent="1" source="OusUOf15VLRuK_A5Rpda-14" target="OusUOf15VLRuK_A5Rpda-35">
          <mxGeometry relative="1" as="geometry">
            <Array as="points">
              <mxPoint x="259" y="-30" />
              <mxPoint x="445" y="-30" />
            </Array>
          </mxGeometry>
        </mxCell>
        <mxCell id="OusUOf15VLRuK_A5Rpda-13" style="edgeStyle=orthogonalEdgeStyle;rounded=0;orthogonalLoop=1;jettySize=auto;html=1;entryX=0.5;entryY=0;entryDx=0;entryDy=0;endArrow=none;endFill=0;" edge="1" parent="1" source="OusUOf15VLRuK_A5Rpda-14" target="OusUOf15VLRuK_A5Rpda-39">
          <mxGeometry relative="1" as="geometry">
            <Array as="points">
              <mxPoint x="259" y="-30" />
              <mxPoint x="579" y="-30" />
            </Array>
          </mxGeometry>
        </mxCell>
        <mxCell id="OusUOf15VLRuK_A5Rpda-14" value="Game" style="rounded=0;whiteSpace=wrap;html=1;fillColor=none;" vertex="1" parent="1">
          <mxGeometry x="199" y="-130" width="120" height="60" as="geometry" />
        </mxCell>
        <mxCell id="OusUOf15VLRuK_A5Rpda-15" value="Level" style="swimlane;fontStyle=1;align=center;verticalAlign=top;childLayout=stackLayout;horizontal=1;startSize=26;horizontalStack=0;resizeParent=1;resizeParentMax=0;resizeLast=0;collapsible=1;marginBottom=0;whiteSpace=wrap;html=1;fillColor=none;swimlaneLine=1;" vertex="1" parent="1">
          <mxGeometry x="179" y="10" width="160" height="112" as="geometry" />
        </mxCell>
        <mxCell id="OusUOf15VLRuK_A5Rpda-16" value="&lt;div&gt;+ interactiveDoor: bool&lt;/div&gt;" style="text;strokeColor=none;fillColor=none;align=left;verticalAlign=top;spacingLeft=4;spacingRight=4;overflow=hidden;rotatable=0;points=[[0,0.5],[1,0.5]];portConstraint=eastwest;whiteSpace=wrap;html=1;" vertex="1" parent="OusUOf15VLRuK_A5Rpda-15">
          <mxGeometry y="26" width="160" height="31" as="geometry" />
        </mxCell>
        <mxCell id="OusUOf15VLRuK_A5Rpda-17" value="" style="line;strokeWidth=1;fillColor=none;align=left;verticalAlign=middle;spacingTop=-1;spacingLeft=3;spacingRight=3;rotatable=0;labelPosition=right;points=[];portConstraint=eastwest;strokeColor=inherit;" vertex="1" parent="OusUOf15VLRuK_A5Rpda-15">
          <mxGeometry y="57" width="160" height="8" as="geometry" />
        </mxCell>
        <mxCell id="OusUOf15VLRuK_A5Rpda-18" value="+ openDoor(): void" style="text;strokeColor=none;fillColor=none;align=left;verticalAlign=top;spacingLeft=4;spacingRight=4;overflow=hidden;rotatable=0;points=[[0,0.5],[1,0.5]];portConstraint=eastwest;whiteSpace=wrap;html=1;" vertex="1" parent="OusUOf15VLRuK_A5Rpda-15">
          <mxGeometry y="65" width="160" height="47" as="geometry" />
        </mxCell>
        <mxCell id="OusUOf15VLRuK_A5Rpda-19" value="Enemy" style="swimlane;fontStyle=1;align=center;verticalAlign=top;childLayout=stackLayout;horizontal=1;startSize=26;horizontalStack=0;resizeParent=1;resizeParentMax=0;resizeLast=0;collapsible=1;marginBottom=0;whiteSpace=wrap;html=1;fillColor=none;" vertex="1" parent="1">
          <mxGeometry x="193" y="266" width="160" height="130" as="geometry" />
        </mxCell>
        <mxCell id="OusUOf15VLRuK_A5Rpda-20" value="&lt;div&gt;+ activeRange: float&lt;/div&gt;" style="text;strokeColor=none;fillColor=none;align=left;verticalAlign=top;spacingLeft=4;spacingRight=4;overflow=hidden;rotatable=0;points=[[0,0.5],[1,0.5]];portConstraint=eastwest;whiteSpace=wrap;html=1;" vertex="1" parent="OusUOf15VLRuK_A5Rpda-19">
          <mxGeometry y="26" width="160" height="27" as="geometry" />
        </mxCell>
        <mxCell id="OusUOf15VLRuK_A5Rpda-21" value="" style="line;strokeWidth=1;fillColor=none;align=left;verticalAlign=middle;spacingTop=-1;spacingLeft=3;spacingRight=3;rotatable=0;labelPosition=right;points=[];portConstraint=eastwest;strokeColor=inherit;" vertex="1" parent="OusUOf15VLRuK_A5Rpda-19">
          <mxGeometry y="53" width="160" height="8" as="geometry" />
        </mxCell>
        <mxCell id="OusUOf15VLRuK_A5Rpda-22" value="+ autoMove(): void&lt;div&gt;+ moveToPlayer(): void&lt;/div&gt;&lt;div&gt;+ attack(): void&lt;/div&gt;" style="text;strokeColor=none;fillColor=none;align=left;verticalAlign=top;spacingLeft=4;spacingRight=4;overflow=hidden;rotatable=0;points=[[0,0.5],[1,0.5]];portConstraint=eastwest;whiteSpace=wrap;html=1;" vertex="1" parent="OusUOf15VLRuK_A5Rpda-19">
          <mxGeometry y="61" width="160" height="69" as="geometry" />
        </mxCell>
        <mxCell id="OusUOf15VLRuK_A5Rpda-23" value="1" style="text;html=1;align=center;verticalAlign=middle;resizable=0;points=[];autosize=1;strokeColor=none;fillColor=none;" vertex="1" parent="1">
          <mxGeometry x="221" y="118" width="25" height="26" as="geometry" />
        </mxCell>
        <mxCell id="OusUOf15VLRuK_A5Rpda-24" value="1...*" style="text;html=1;align=center;verticalAlign=middle;resizable=0;points=[];autosize=1;strokeColor=none;fillColor=none;" vertex="1" parent="1">
          <mxGeometry x="275" y="243" width="39" height="26" as="geometry" />
        </mxCell>
        <mxCell id="OusUOf15VLRuK_A5Rpda-25" value="Charactor" style="swimlane;fontStyle=1;align=center;verticalAlign=top;childLayout=stackLayout;horizontal=1;startSize=26;horizontalStack=0;resizeParent=1;resizeParentMax=0;resizeLast=0;collapsible=1;marginBottom=0;whiteSpace=wrap;html=1;fillColor=none;swimlaneLine=1;" vertex="1" parent="1">
          <mxGeometry x="-37" y="10" width="160" height="120" as="geometry" />
        </mxCell>
        <mxCell id="OusUOf15VLRuK_A5Rpda-26" value="+ health : float&lt;div&gt;+ damage: float&lt;/div&gt;&lt;div&gt;+ speed: float&lt;/div&gt;" style="text;strokeColor=none;fillColor=none;align=left;verticalAlign=top;spacingLeft=4;spacingRight=4;overflow=hidden;rotatable=0;points=[[0,0.5],[1,0.5]];portConstraint=eastwest;whiteSpace=wrap;html=1;" vertex="1" parent="OusUOf15VLRuK_A5Rpda-25">
          <mxGeometry y="26" width="160" height="55" as="geometry" />
        </mxCell>
        <mxCell id="OusUOf15VLRuK_A5Rpda-27" value="" style="line;strokeWidth=1;fillColor=none;align=left;verticalAlign=middle;spacingTop=-1;spacingLeft=3;spacingRight=3;rotatable=0;labelPosition=right;points=[];portConstraint=eastwest;strokeColor=inherit;" vertex="1" parent="OusUOf15VLRuK_A5Rpda-25">
          <mxGeometry y="81" width="160" height="8" as="geometry" />
        </mxCell>
        <mxCell id="OusUOf15VLRuK_A5Rpda-28" value="+ takeDmg(): void" style="text;strokeColor=none;fillColor=none;align=left;verticalAlign=top;spacingLeft=4;spacingRight=4;overflow=hidden;rotatable=0;points=[[0,0.5],[1,0.5]];portConstraint=eastwest;whiteSpace=wrap;html=1;" vertex="1" parent="OusUOf15VLRuK_A5Rpda-25">
          <mxGeometry y="89" width="160" height="31" as="geometry" />
        </mxCell>
        <mxCell id="OusUOf15VLRuK_A5Rpda-29" value="Extends" style="endArrow=block;endSize=16;endFill=0;html=1;rounded=0;entryX=0.513;entryY=0.968;entryDx=0;entryDy=0;entryPerimeter=0;exitX=0.25;exitY=0;exitDx=0;exitDy=0;" edge="1" parent="1" source="OusUOf15VLRuK_A5Rpda-19" target="OusUOf15VLRuK_A5Rpda-28">
          <mxGeometry width="160" relative="1" as="geometry">
            <mxPoint x="10" y="196" as="sourcePoint" />
            <mxPoint x="170" y="196" as="targetPoint" />
          </mxGeometry>
        </mxCell>
        <mxCell id="OusUOf15VLRuK_A5Rpda-30" value="Extends" style="endArrow=block;endSize=16;endFill=0;html=1;rounded=0;entryX=0.45;entryY=1.032;entryDx=0;entryDy=0;entryPerimeter=0;exitX=0.5;exitY=0;exitDx=0;exitDy=0;" edge="1" parent="1" source="OusUOf15VLRuK_A5Rpda-6" target="OusUOf15VLRuK_A5Rpda-28">
          <mxGeometry width="160" relative="1" as="geometry">
            <mxPoint x="229" y="317" as="sourcePoint" />
            <mxPoint x="59" y="155" as="targetPoint" />
          </mxGeometry>
        </mxCell>
        <mxCell id="OusUOf15VLRuK_A5Rpda-35" value="SoundManager" style="swimlane;fontStyle=1;align=center;verticalAlign=top;childLayout=stackLayout;horizontal=1;startSize=26;horizontalStack=0;resizeParent=1;resizeParentMax=0;resizeLast=0;collapsible=1;marginBottom=0;whiteSpace=wrap;html=1;swimlaneLine=1;fillColor=none;" vertex="1" parent="1">
          <mxGeometry x="365" y="218" width="160" height="120" as="geometry" />
        </mxCell>
        <mxCell id="OusUOf15VLRuK_A5Rpda-36" value="+ audioClip&lt;div&gt;+ isMute: bool&lt;/div&gt;" style="text;strokeColor=none;fillColor=none;align=left;verticalAlign=top;spacingLeft=4;spacingRight=4;overflow=hidden;rotatable=0;points=[[0,0.5],[1,0.5]];portConstraint=eastwest;whiteSpace=wrap;html=1;" vertex="1" parent="OusUOf15VLRuK_A5Rpda-35">
          <mxGeometry y="26" width="160" height="46" as="geometry" />
        </mxCell>
        <mxCell id="OusUOf15VLRuK_A5Rpda-37" value="" style="line;strokeWidth=1;fillColor=none;align=left;verticalAlign=middle;spacingTop=-1;spacingLeft=3;spacingRight=3;rotatable=0;labelPosition=right;points=[];portConstraint=eastwest;strokeColor=inherit;" vertex="1" parent="OusUOf15VLRuK_A5Rpda-35">
          <mxGeometry y="72" width="160" height="8" as="geometry" />
        </mxCell>
        <mxCell id="OusUOf15VLRuK_A5Rpda-38" value="+ playSound(): void&lt;div&gt;+ muteSound(): void&lt;/div&gt;" style="text;strokeColor=none;fillColor=none;align=left;verticalAlign=top;spacingLeft=4;spacingRight=4;overflow=hidden;rotatable=0;points=[[0,0.5],[1,0.5]];portConstraint=eastwest;whiteSpace=wrap;html=1;" vertex="1" parent="OusUOf15VLRuK_A5Rpda-35">
          <mxGeometry y="80" width="160" height="40" as="geometry" />
        </mxCell>
        <mxCell id="OusUOf15VLRuK_A5Rpda-39" value="Game Manager" style="swimlane;fontStyle=1;align=center;verticalAlign=top;childLayout=stackLayout;horizontal=1;startSize=26;horizontalStack=0;resizeParent=1;resizeParentMax=0;resizeLast=0;collapsible=1;marginBottom=0;whiteSpace=wrap;html=1;fillColor=none;" vertex="1" parent="1">
          <mxGeometry x="499" y="-2" width="160" height="193" as="geometry" />
        </mxCell>
        <mxCell id="OusUOf15VLRuK_A5Rpda-40" value="+ levelToUnlock : int&lt;div&gt;+ currentLevel: int&lt;/div&gt;" style="text;strokeColor=none;fillColor=none;align=left;verticalAlign=top;spacingLeft=4;spacingRight=4;overflow=hidden;rotatable=0;points=[[0,0.5],[1,0.5]];portConstraint=eastwest;whiteSpace=wrap;html=1;" vertex="1" parent="OusUOf15VLRuK_A5Rpda-39">
          <mxGeometry y="26" width="160" height="44" as="geometry" />
        </mxCell>
        <mxCell id="OusUOf15VLRuK_A5Rpda-41" value="" style="line;strokeWidth=1;fillColor=none;align=left;verticalAlign=middle;spacingTop=-1;spacingLeft=3;spacingRight=3;rotatable=0;labelPosition=right;points=[];portConstraint=eastwest;strokeColor=inherit;" vertex="1" parent="OusUOf15VLRuK_A5Rpda-39">
          <mxGeometry y="70" width="160" height="8" as="geometry" />
        </mxCell>
        <mxCell id="OusUOf15VLRuK_A5Rpda-42" value="+ pause(): void&lt;div&gt;+ winGame(): void&lt;/div&gt;&lt;div&gt;+ loseGame(): void&lt;/div&gt;&lt;div&gt;+ backToMenu(): void&lt;/div&gt;&lt;div&gt;+ resume(): void&lt;/div&gt;&lt;div&gt;+ replay(): void&lt;/div&gt;&lt;div&gt;+ nextLevel(): void&lt;/div&gt;" style="text;strokeColor=none;fillColor=none;align=left;verticalAlign=top;spacingLeft=4;spacingRight=4;overflow=hidden;rotatable=0;points=[[0,0.5],[1,0.5]];portConstraint=eastwest;whiteSpace=wrap;html=1;" vertex="1" parent="OusUOf15VLRuK_A5Rpda-39">
          <mxGeometry y="78" width="160" height="115" as="geometry" />
        </mxCell>
        <mxCell id="OusUOf15VLRuK_A5Rpda-46" value="" style="endArrow=diamondThin;endFill=0;endSize=24;html=1;rounded=0;entryX=0.475;entryY=0.982;entryDx=0;entryDy=0;entryPerimeter=0;exitX=0.5;exitY=0;exitDx=0;exitDy=0;" edge="1" parent="1" source="OusUOf15VLRuK_A5Rpda-19" target="OusUOf15VLRuK_A5Rpda-18">
          <mxGeometry width="160" relative="1" as="geometry">
            <mxPoint x="182" y="159" as="sourcePoint" />
            <mxPoint x="342" y="159" as="targetPoint" />
          </mxGeometry>
        </mxCell>
        <mxCell id="OusUOf15VLRuK_A5Rpda-47" value="" style="endArrow=diamondThin;endFill=1;endSize=24;html=1;rounded=0;exitX=0.5;exitY=0;exitDx=0;exitDy=0;entryX=0.5;entryY=1;entryDx=0;entryDy=0;" edge="1" parent="1" source="OusUOf15VLRuK_A5Rpda-15" target="OusUOf15VLRuK_A5Rpda-14">
          <mxGeometry width="160" relative="1" as="geometry">
            <mxPoint x="248" y="-25" as="sourcePoint" />
            <mxPoint x="408" y="-25" as="targetPoint" />
          </mxGeometry>
        </mxCell>
      </root>
    </mxGraphModel>
  </diagram>
  <diagram id="PAG0SlTjrTGzceuq_fbr" name="Game UI">
    <mxGraphModel dx="880" dy="480" grid="1" gridSize="10" guides="1" tooltips="1" connect="1" arrows="1" fold="1" page="0" pageScale="1" pageWidth="850" pageHeight="1100" math="0" shadow="0">
      <root>
        <mxCell id="0" />
        <mxCell id="1" parent="0" />
        <mxCell id="9HkC3Hm-ja1beYU_-CgI-55" value="" style="rounded=0;whiteSpace=wrap;html=1;fillColor=default;" parent="1" vertex="1">
          <mxGeometry x="520" y="80" width="360" height="200" as="geometry" />
        </mxCell>
        <mxCell id="9HkC3Hm-ja1beYU_-CgI-56" value="" style="group" parent="1" vertex="1" connectable="0">
          <mxGeometry x="120" y="80" width="360" height="200" as="geometry" />
        </mxCell>
        <mxCell id="9HkC3Hm-ja1beYU_-CgI-1" value="" style="rounded=0;whiteSpace=wrap;html=1;fillColor=default;" parent="9HkC3Hm-ja1beYU_-CgI-56" vertex="1">
          <mxGeometry width="360" height="200" as="geometry" />
        </mxCell>
        <mxCell id="9HkC3Hm-ja1beYU_-CgI-2" value="Death Forest" style="rounded=1;whiteSpace=wrap;html=1;fillColor=default;" parent="9HkC3Hm-ja1beYU_-CgI-56" vertex="1">
          <mxGeometry x="90" y="10" width="180" height="60" as="geometry" />
        </mxCell>
        <mxCell id="9HkC3Hm-ja1beYU_-CgI-3" value="Play" style="rounded=1;whiteSpace=wrap;html=1;" parent="9HkC3Hm-ja1beYU_-CgI-56" vertex="1">
          <mxGeometry x="130" y="79" width="100" height="30" as="geometry" />
        </mxCell>
        <mxCell id="9HkC3Hm-ja1beYU_-CgI-4" value="Setting" style="rounded=1;whiteSpace=wrap;html=1;" parent="9HkC3Hm-ja1beYU_-CgI-56" vertex="1">
          <mxGeometry x="130" y="120" width="100" height="30" as="geometry" />
        </mxCell>
        <mxCell id="9HkC3Hm-ja1beYU_-CgI-5" value="Trophy" style="rounded=1;whiteSpace=wrap;html=1;" parent="9HkC3Hm-ja1beYU_-CgI-56" vertex="1">
          <mxGeometry x="130" y="160" width="100" height="30" as="geometry" />
        </mxCell>
        <mxCell id="9HkC3Hm-ja1beYU_-CgI-6" value="X" style="rounded=1;whiteSpace=wrap;html=1;" parent="9HkC3Hm-ja1beYU_-CgI-56" vertex="1">
          <mxGeometry x="320" y="10" width="30" height="30" as="geometry" />
        </mxCell>
        <mxCell id="9HkC3Hm-ja1beYU_-CgI-7" value="?" style="rounded=1;whiteSpace=wrap;html=1;" parent="9HkC3Hm-ja1beYU_-CgI-56" vertex="1">
          <mxGeometry x="10" y="10" width="30" height="30" as="geometry" />
        </mxCell>
        <mxCell id="9HkC3Hm-ja1beYU_-CgI-57" value="" style="whiteSpace=wrap;html=1;aspect=fixed;" parent="1" vertex="1">
          <mxGeometry x="610" y="90" width="175" height="175" as="geometry" />
        </mxCell>
        <mxCell id="9HkC3Hm-ja1beYU_-CgI-66" value="&lt;font style=&quot;font-size: 17px;&quot;&gt;&amp;lt;&lt;/font&gt;" style="rounded=1;whiteSpace=wrap;html=1;" parent="1" vertex="1">
          <mxGeometry x="530" y="90" width="30" height="30" as="geometry" />
        </mxCell>
        <mxCell id="9HkC3Hm-ja1beYU_-CgI-67" value="1" style="whiteSpace=wrap;html=1;aspect=fixed;" parent="1" vertex="1">
          <mxGeometry x="620" y="100" width="40" height="40" as="geometry" />
        </mxCell>
        <mxCell id="9HkC3Hm-ja1beYU_-CgI-68" value="2" style="whiteSpace=wrap;html=1;aspect=fixed;" parent="1" vertex="1">
          <mxGeometry x="680" y="100" width="40" height="40" as="geometry" />
        </mxCell>
        <mxCell id="9HkC3Hm-ja1beYU_-CgI-69" value="3" style="whiteSpace=wrap;html=1;aspect=fixed;" parent="1" vertex="1">
          <mxGeometry x="740" y="100" width="40" height="40" as="geometry" />
        </mxCell>
        <mxCell id="9HkC3Hm-ja1beYU_-CgI-120" value="4" style="whiteSpace=wrap;html=1;aspect=fixed;" parent="1" vertex="1">
          <mxGeometry x="620" y="157.5" width="40" height="40" as="geometry" />
        </mxCell>
        <mxCell id="9HkC3Hm-ja1beYU_-CgI-121" value="5" style="whiteSpace=wrap;html=1;aspect=fixed;" parent="1" vertex="1">
          <mxGeometry x="680" y="160" width="40" height="40" as="geometry" />
        </mxCell>
        <mxCell id="9HkC3Hm-ja1beYU_-CgI-122" value="6" style="whiteSpace=wrap;html=1;aspect=fixed;" parent="1" vertex="1">
          <mxGeometry x="740" y="160" width="40" height="40" as="geometry" />
        </mxCell>
        <mxCell id="9HkC3Hm-ja1beYU_-CgI-123" value="8" style="whiteSpace=wrap;html=1;aspect=fixed;" parent="1" vertex="1">
          <mxGeometry x="680" y="220" width="40" height="40" as="geometry" />
        </mxCell>
        <mxCell id="9HkC3Hm-ja1beYU_-CgI-124" value="8" style="whiteSpace=wrap;html=1;aspect=fixed;" parent="1" vertex="1">
          <mxGeometry x="740" y="220" width="40" height="40" as="geometry" />
        </mxCell>
        <mxCell id="9HkC3Hm-ja1beYU_-CgI-125" value="7" style="whiteSpace=wrap;html=1;aspect=fixed;" parent="1" vertex="1">
          <mxGeometry x="620" y="220" width="40" height="40" as="geometry" />
        </mxCell>
        <mxCell id="9HkC3Hm-ja1beYU_-CgI-129" value="Main Menu" style="text;html=1;align=center;verticalAlign=middle;resizable=0;points=[];autosize=1;strokeColor=none;fillColor=none;" parent="1" vertex="1">
          <mxGeometry x="108" y="56" width="80" height="30" as="geometry" />
        </mxCell>
        <mxCell id="9HkC3Hm-ja1beYU_-CgI-130" value="Select Level" style="text;html=1;align=center;verticalAlign=middle;resizable=0;points=[];autosize=1;strokeColor=none;fillColor=none;" parent="1" vertex="1">
          <mxGeometry x="507" y="57" width="90" height="30" as="geometry" />
        </mxCell>
        <mxCell id="Kb3966b4Syjfa7rGA28--1" value="" style="group" vertex="1" connectable="0" parent="1">
          <mxGeometry x="120" y="360" width="610" height="540" as="geometry" />
        </mxCell>
        <mxCell id="Kb3966b4Syjfa7rGA28--2" value="" style="rounded=0;whiteSpace=wrap;html=1;fillColor=default;" vertex="1" parent="Kb3966b4Syjfa7rGA28--1">
          <mxGeometry width="360" height="200" as="geometry" />
        </mxCell>
        <mxCell id="Kb3966b4Syjfa7rGA28--4" value="" style="rounded=1;whiteSpace=wrap;html=1;" vertex="1" parent="Kb3966b4Syjfa7rGA28--1">
          <mxGeometry x="130" y="60" width="200" height="30" as="geometry" />
        </mxCell>
        <mxCell id="Kb3966b4Syjfa7rGA28--5" value="" style="rounded=1;whiteSpace=wrap;html=1;" vertex="1" parent="Kb3966b4Syjfa7rGA28--1">
          <mxGeometry x="130" y="110" width="200" height="30" as="geometry" />
        </mxCell>
        <mxCell id="Kb3966b4Syjfa7rGA28--8" value="&amp;lt;" style="rounded=1;whiteSpace=wrap;html=1;" vertex="1" parent="Kb3966b4Syjfa7rGA28--1">
          <mxGeometry x="10" y="10" width="30" height="30" as="geometry" />
        </mxCell>
        <mxCell id="Kb3966b4Syjfa7rGA28--10" value="SFX" style="text;html=1;align=center;verticalAlign=middle;whiteSpace=wrap;rounded=0;" vertex="1" parent="Kb3966b4Syjfa7rGA28--1">
          <mxGeometry x="40" y="60" width="60" height="30" as="geometry" />
        </mxCell>
        <mxCell id="Kb3966b4Syjfa7rGA28--11" value="Muzic" style="text;html=1;align=center;verticalAlign=middle;whiteSpace=wrap;rounded=0;" vertex="1" parent="Kb3966b4Syjfa7rGA28--1">
          <mxGeometry x="40" y="110" width="60" height="30" as="geometry" />
        </mxCell>
        <mxCell id="Kb3966b4Syjfa7rGA28--14" value="" style="rounded=1;whiteSpace=wrap;html=1;fillColor=#e3c800;fontColor=#000000;strokeColor=#B09500;" vertex="1" parent="Kb3966b4Syjfa7rGA28--1">
          <mxGeometry x="130" y="60" width="120" height="30" as="geometry" />
        </mxCell>
        <mxCell id="Kb3966b4Syjfa7rGA28--15" value="" style="rounded=1;whiteSpace=wrap;html=1;fillColor=#e3c800;fontColor=#000000;strokeColor=#B09500;" vertex="1" parent="Kb3966b4Syjfa7rGA28--1">
          <mxGeometry x="130" y="110" width="120" height="30" as="geometry" />
        </mxCell>
        <mxCell id="Kb3966b4Syjfa7rGA28--67" value="Pause Game" style="text;html=1;align=center;verticalAlign=middle;resizable=0;points=[];autosize=1;strokeColor=none;fillColor=none;" vertex="1" parent="Kb3966b4Syjfa7rGA28--1">
          <mxGeometry x="400" y="208" width="90" height="30" as="geometry" />
        </mxCell>
        <mxCell id="Kb3966b4Syjfa7rGA28--84" value="Play game" style="text;html=1;align=center;verticalAlign=middle;resizable=0;points=[];autosize=1;strokeColor=none;fillColor=none;" vertex="1" parent="Kb3966b4Syjfa7rGA28--1">
          <mxGeometry y="450" width="80" height="30" as="geometry" />
        </mxCell>
        <mxCell id="Kb3966b4Syjfa7rGA28--12" value="Setting" style="text;html=1;align=center;verticalAlign=middle;whiteSpace=wrap;rounded=0;" vertex="1" parent="1">
          <mxGeometry x="118" y="330" width="60" height="30" as="geometry" />
        </mxCell>
        <mxCell id="Kb3966b4Syjfa7rGA28--16" value="" style="group" vertex="1" connectable="0" parent="1">
          <mxGeometry x="520" y="360" width="360" height="200" as="geometry" />
        </mxCell>
        <mxCell id="Kb3966b4Syjfa7rGA28--17" value="" style="rounded=0;whiteSpace=wrap;html=1;fillColor=default;" vertex="1" parent="Kb3966b4Syjfa7rGA28--16">
          <mxGeometry width="360" height="200" as="geometry" />
        </mxCell>
        <mxCell id="Kb3966b4Syjfa7rGA28--19" value="Best Score:&amp;nbsp;" style="rounded=1;whiteSpace=wrap;html=1;" vertex="1" parent="Kb3966b4Syjfa7rGA28--16">
          <mxGeometry x="80" y="140" width="200" height="30" as="geometry" />
        </mxCell>
        <mxCell id="Kb3966b4Syjfa7rGA28--20" value="&amp;lt;" style="rounded=1;whiteSpace=wrap;html=1;" vertex="1" parent="Kb3966b4Syjfa7rGA28--16">
          <mxGeometry x="10" y="10" width="30" height="30" as="geometry" />
        </mxCell>
        <mxCell id="Kb3966b4Syjfa7rGA28--26" value="" style="shape=umlActor;verticalLabelPosition=bottom;verticalAlign=top;html=1;outlineConnect=0;" vertex="1" parent="Kb3966b4Syjfa7rGA28--16">
          <mxGeometry x="100" y="40" width="30" height="60" as="geometry" />
        </mxCell>
        <mxCell id="Kb3966b4Syjfa7rGA28--27" value="" style="shape=umlActor;verticalLabelPosition=bottom;verticalAlign=top;html=1;outlineConnect=0;" vertex="1" parent="Kb3966b4Syjfa7rGA28--16">
          <mxGeometry x="150" y="40" width="30" height="60" as="geometry" />
        </mxCell>
        <mxCell id="Kb3966b4Syjfa7rGA28--28" value="" style="shape=umlActor;verticalLabelPosition=bottom;verticalAlign=top;html=1;outlineConnect=0;" vertex="1" parent="Kb3966b4Syjfa7rGA28--16">
          <mxGeometry x="190" y="40" width="30" height="60" as="geometry" />
        </mxCell>
        <mxCell id="Kb3966b4Syjfa7rGA28--25" value="View Trophy" style="text;html=1;align=center;verticalAlign=middle;whiteSpace=wrap;rounded=0;" vertex="1" parent="1">
          <mxGeometry x="520" y="330" width="80" height="30" as="geometry" />
        </mxCell>
        <mxCell id="Kb3966b4Syjfa7rGA28--29" value="" style="group" vertex="1" connectable="0" parent="1">
          <mxGeometry x="120" y="600" width="360" height="200" as="geometry" />
        </mxCell>
        <mxCell id="Kb3966b4Syjfa7rGA28--30" value="" style="rounded=0;whiteSpace=wrap;html=1;fillColor=default;" vertex="1" parent="Kb3966b4Syjfa7rGA28--29">
          <mxGeometry width="360" height="200" as="geometry" />
        </mxCell>
        <mxCell id="Kb3966b4Syjfa7rGA28--32" value="&amp;lt;" style="rounded=1;whiteSpace=wrap;html=1;" vertex="1" parent="Kb3966b4Syjfa7rGA28--29">
          <mxGeometry x="10" y="10" width="30" height="30" as="geometry" />
        </mxCell>
        <mxCell id="Kb3966b4Syjfa7rGA28--37" value="How to play" style="swimlane;whiteSpace=wrap;html=1;" vertex="1" parent="Kb3966b4Syjfa7rGA28--29">
          <mxGeometry x="80" width="200" height="200" as="geometry" />
        </mxCell>
        <mxCell id="Kb3966b4Syjfa7rGA28--36" value="How to play" style="text;html=1;align=center;verticalAlign=middle;resizable=0;points=[];autosize=1;strokeColor=none;fillColor=none;" vertex="1" parent="1">
          <mxGeometry x="118" y="570" width="90" height="30" as="geometry" />
        </mxCell>
        <mxCell id="Kb3966b4Syjfa7rGA28--38" value="" style="group" vertex="1" connectable="0" parent="1">
          <mxGeometry x="520" y="600" width="360" height="200" as="geometry" />
        </mxCell>
        <mxCell id="Kb3966b4Syjfa7rGA28--39" value="" style="rounded=0;whiteSpace=wrap;html=1;fillColor=default;" vertex="1" parent="Kb3966b4Syjfa7rGA28--38">
          <mxGeometry width="360" height="200" as="geometry" />
        </mxCell>
        <mxCell id="Kb3966b4Syjfa7rGA28--42" value="" style="rounded=1;whiteSpace=wrap;html=1;" vertex="1" parent="Kb3966b4Syjfa7rGA28--38">
          <mxGeometry x="70" y="80" width="30" height="30" as="geometry" />
        </mxCell>
        <mxCell id="Kb3966b4Syjfa7rGA28--49" value="" style="rounded=1;whiteSpace=wrap;html=1;" vertex="1" parent="Kb3966b4Syjfa7rGA28--38">
          <mxGeometry x="150" y="80" width="30" height="30" as="geometry" />
        </mxCell>
        <mxCell id="Kb3966b4Syjfa7rGA28--50" value="" style="rounded=1;whiteSpace=wrap;html=1;" vertex="1" parent="Kb3966b4Syjfa7rGA28--38">
          <mxGeometry x="230" y="80" width="30" height="30" as="geometry" />
        </mxCell>
        <mxCell id="Kb3966b4Syjfa7rGA28--52" value="" style="triangle;whiteSpace=wrap;html=1;" vertex="1" parent="Kb3966b4Syjfa7rGA28--38">
          <mxGeometry x="77.5" y="87.5" width="15" height="15" as="geometry" />
        </mxCell>
        <mxCell id="Kb3966b4Syjfa7rGA28--56" value="" style="verticalLabelPosition=bottom;verticalAlign=top;html=1;shape=mxgraph.basic.partConcEllipse;startAngle=0.25;endAngle=0.1;arcWidth=0.5;" vertex="1" parent="Kb3966b4Syjfa7rGA28--38">
          <mxGeometry x="155" y="85" width="20" height="20" as="geometry" />
        </mxCell>
        <mxCell id="Kb3966b4Syjfa7rGA28--66" value="" style="group" vertex="1" connectable="0" parent="Kb3966b4Syjfa7rGA28--38">
          <mxGeometry x="230" y="82.5" width="30" height="20" as="geometry" />
        </mxCell>
        <mxCell id="Kb3966b4Syjfa7rGA28--62" value="" style="endArrow=none;html=1;rounded=0;" edge="1" parent="Kb3966b4Syjfa7rGA28--66">
          <mxGeometry width="50" height="50" relative="1" as="geometry">
            <mxPoint y="10" as="sourcePoint" />
            <mxPoint x="30" y="10" as="targetPoint" />
          </mxGeometry>
        </mxCell>
        <mxCell id="Kb3966b4Syjfa7rGA28--63" value="" style="endArrow=none;html=1;rounded=0;" edge="1" parent="Kb3966b4Syjfa7rGA28--66">
          <mxGeometry width="50" height="50" relative="1" as="geometry">
            <mxPoint y="20" as="sourcePoint" />
            <mxPoint x="30" y="20" as="targetPoint" />
          </mxGeometry>
        </mxCell>
        <mxCell id="Kb3966b4Syjfa7rGA28--61" value="" style="endArrow=none;html=1;rounded=0;" edge="1" parent="Kb3966b4Syjfa7rGA28--66">
          <mxGeometry width="50" height="50" relative="1" as="geometry">
            <mxPoint as="sourcePoint" />
            <mxPoint x="30" as="targetPoint" />
          </mxGeometry>
        </mxCell>
        <mxCell id="Kb3966b4Syjfa7rGA28--72" value="" style="group" vertex="1" connectable="0" parent="1">
          <mxGeometry x="120" y="840" width="360" height="200" as="geometry" />
        </mxCell>
        <mxCell id="Kb3966b4Syjfa7rGA28--73" value="" style="rounded=0;whiteSpace=wrap;html=1;fillColor=default;" vertex="1" parent="Kb3966b4Syjfa7rGA28--72">
          <mxGeometry width="360" height="200" as="geometry" />
        </mxCell>
        <mxCell id="Kb3966b4Syjfa7rGA28--87" value="" style="rounded=0;whiteSpace=wrap;html=1;" vertex="1" parent="Kb3966b4Syjfa7rGA28--72">
          <mxGeometry x="10" y="20" width="110" height="20" as="geometry" />
        </mxCell>
        <mxCell id="Kb3966b4Syjfa7rGA28--88" value="" style="rounded=0;whiteSpace=wrap;html=1;fillColor=#e51400;fontColor=#ffffff;strokeColor=#B20000;" vertex="1" parent="Kb3966b4Syjfa7rGA28--72">
          <mxGeometry x="10" y="20" width="60" height="20" as="geometry" />
        </mxCell>
        <mxCell id="Kb3966b4Syjfa7rGA28--89" value="60/100" style="text;html=1;align=center;verticalAlign=middle;resizable=0;points=[];autosize=1;strokeColor=none;fillColor=none;" vertex="1" parent="Kb3966b4Syjfa7rGA28--72">
          <mxGeometry x="35" y="15" width="60" height="30" as="geometry" />
        </mxCell>
        <mxCell id="Kb3966b4Syjfa7rGA28--90" value="Score: 50" style="text;html=1;align=center;verticalAlign=middle;resizable=0;points=[];autosize=1;strokeColor=none;fillColor=none;" vertex="1" parent="Kb3966b4Syjfa7rGA28--72">
          <mxGeometry x="140" y="15" width="70" height="30" as="geometry" />
        </mxCell>
        <mxCell id="Kb3966b4Syjfa7rGA28--91" value="" style="whiteSpace=wrap;html=1;aspect=fixed;" vertex="1" parent="Kb3966b4Syjfa7rGA28--72">
          <mxGeometry x="25" y="100" width="80" height="80" as="geometry" />
        </mxCell>
        <mxCell id="Kb3966b4Syjfa7rGA28--92" value="" style="rounded=1;whiteSpace=wrap;html=1;" vertex="1" parent="Kb3966b4Syjfa7rGA28--72">
          <mxGeometry x="100" y="90" width="120" height="60" as="geometry" />
        </mxCell>
        <mxCell id="Kb3966b4Syjfa7rGA28--93" value="" style="whiteSpace=wrap;html=1;aspect=fixed;" vertex="1" parent="Kb3966b4Syjfa7rGA28--72">
          <mxGeometry x="200" y="120" width="80" height="80" as="geometry" />
        </mxCell>
        <mxCell id="Kb3966b4Syjfa7rGA28--94" value="" style="rounded=1;whiteSpace=wrap;html=1;" vertex="1" parent="Kb3966b4Syjfa7rGA28--72">
          <mxGeometry x="240" y="110" width="120" height="60" as="geometry" />
        </mxCell>
        <mxCell id="Kb3966b4Syjfa7rGA28--95" value="Map" style="text;html=1;align=center;verticalAlign=middle;resizable=0;points=[];autosize=1;strokeColor=none;fillColor=none;" vertex="1" parent="Kb3966b4Syjfa7rGA28--72">
          <mxGeometry x="130" y="140" width="50" height="30" as="geometry" />
        </mxCell>
      </root>
    </mxGraphModel>
  </diagram>
</mxfile>
